HIERARCHY
ROOT hip
{
  OFFSET 0 0 0
  CHANNELS 6 Xposition Yposition Zposition Zrotation Yrotation Xrotation
  JOINT abdomen
  {
    OFFSET 0 20.6881 -0.73152
    CHANNELS 3 Zrotation Xrotation Yrotation
    JOINT chest
    {
      OFFSET 0 11.7043 -0.48768
      CHANNELS 3 Zrotation Xrotation Yrotation
      JOINT neck
      {
        OFFSET 0 22.1894 -2.19456
        CHANNELS 3 Zrotation Xrotation Yrotation
        JOINT head
        {
          OFFSET -0.24384 7.07133 1.2192
          CHANNELS 3 Zrotation Xrotation Yrotation
          JOINT leftEye
          {
            OFFSET 4.14528 8.04674 8.04672
            CHANNELS 3 Zrotation Xrotation Yrotation
            End Site
            {
              OFFSET 1 0 0
            }
          }
          JOINT rightEye
          {
            OFFSET -3.6576 8.04674 8.04672
            CHANNELS 3 Zrotation Xrotation Yrotation
            End Site
            {
              OFFSET 1 0 0
            }
          }
        }
      }
      JOINT rCollar
      {
        OFFSET -2.68224 19.2634 -4.8768
        CHANNELS 3 Zrotation Xrotation Yrotation
        JOINT rShldr
        {
          OFFSET -8.77824 -1.95073 1.46304
          CHANNELS 3 Zrotation Xrotation Yrotation
          JOINT rForeArm
          {
            OFFSET -28.1742 -1.7115 0.48768
            CHANNELS 3 Zrotation Xrotation Yrotation
            JOINT rHand
            {
              OFFSET -22.5879 0.773209 7.07136
              CHANNELS 3 Zrotation Xrotation Yrotation
              JOINT rThumb1
              {
                OFFSET -1.2192 -0.487915 3.41376
                CHANNELS 3 Zrotation Xrotation Yrotation
                JOINT rThumb2
                {
                  OFFSET -3.37035 -0.52449 3.41376
                  CHANNELS 3 Zrotation Xrotation Yrotation
                  End Site
                  {
                    OFFSET -1.78271 -1.18214 1.43049
                  }
                }
              }
              JOINT rIndex1
              {
                OFFSET -7.75947 0.938293 5.60832
                CHANNELS 3 Zrotation Xrotation Yrotation
                JOINT rIndex2
                {
                  OFFSET -2.54057 -0.884171 1.56538
                  CHANNELS 3 Zrotation Xrotation Yrotation
                  End Site
                  {
                    OFFSET -1.62519 -0.234802 1.16502
                  }
                }
              }
              JOINT rMid1
              {
                OFFSET -8.24714 1.18213 3.41376
                CHANNELS 3 Zrotation Xrotation Yrotation
                JOINT rMid2
                {
                  OFFSET -3.10165 -0.590103 1.0647
                  CHANNELS 3 Zrotation Xrotation Yrotation
                  End Site
                  {
                    OFFSET -2.48547 -0.328903 0.83742
                  }
                }
              }
              JOINT rRing1
              {
                OFFSET -8.82822 0.546677 1.51678
                CHANNELS 3 Zrotation Xrotation Yrotation
                JOINT rRing2
                {
                  OFFSET -2.60934 -0.819778 -0.0198488
                  CHANNELS 3 Zrotation Xrotation Yrotation
                  End Site
                  {
                    OFFSET -2.33842 -0.294052 0.168128
                  }
                }
              }
              JOINT rPinky1
              {
                OFFSET -8.27202 -0.0477905 -0.4584
                CHANNELS 3 Zrotation Xrotation Yrotation
                JOINT rPinky2
                {
                  OFFSET -1.82734 -0.647385 -0.700984
                  CHANNELS 3 Zrotation Xrotation Yrotation
                  End Site
                  {
                    OFFSET -1.69225 -0.51767 -0.607171
                  }
                }
              }
            }
          }
        }
      }
      JOINT lCollar
      {
        OFFSET 2.68224 19.2634 -4.8768
        CHANNELS 3 Zrotation Xrotation Yrotation
        JOINT lShldr
        {
          OFFSET 8.77824 -1.95073 1.46304
          CHANNELS 3 Zrotation Xrotation Yrotation
          JOINT lForeArm
          {
            OFFSET 28.1742 -1.7115 0.48768
            CHANNELS 3 Zrotation Xrotation Yrotation
            JOINT lHand
            {
              OFFSET 22.5879 0.773209 7.07136
              CHANNELS 3 Zrotation Xrotation Yrotation
              JOINT lThumb1
              {
                OFFSET 1.2192 -0.487915 3.41376
                CHANNELS 3 Zrotation Xrotation Yrotation
                JOINT lThumb2
                {
                  OFFSET 3.37035 -0.52449 3.41376
                  CHANNELS 3 Zrotation Xrotation Yrotation
                  End Site
                  {
                    OFFSET 1.78271 -1.18214 1.43049
                  }
                }
              }
              JOINT lIndex1
              {
                OFFSET 7.75947 0.938293 5.60832
                CHANNELS 3 Zrotation Xrotation Yrotation
                JOINT lIndex2
                {
                  OFFSET 2.54057 -0.884171 1.56538
                  CHANNELS 3 Zrotation Xrotation Yrotation
                  End Site
                  {
                    OFFSET 1.62519 -0.234802 1.16502
                  }
                }
              }
              JOINT lMid1
              {
                OFFSET 8.24714 1.18213 3.41376
                CHANNELS 3 Zrotation Xrotation Yrotation
                JOINT lMid2
                {
                  OFFSET 3.10165 -0.590103 1.0647
                  CHANNELS 3 Zrotation Xrotation Yrotation
                  End Site
                  {
                    OFFSET 2.48547 -0.328903 0.83742
                  }
                }
              }
              JOINT lRing1
              {
                OFFSET 8.82822 0.546677 1.51678
                CHANNELS 3 Zrotation Xrotation Yrotation
                JOINT lRing2
                {
                  OFFSET 2.60934 -0.819778 -0.0198488
                  CHANNELS 3 Zrotation Xrotation Yrotation
                  End Site
                  {
                    OFFSET 2.33842 -0.294052 0.168128
                  }
                }
              }
              JOINT lPinky1
              {
                OFFSET 8.27202 -0.0477905 -0.4584
                CHANNELS 3 Zrotation Xrotation Yrotation
                JOINT lPinky2
                {
                  OFFSET 1.82734 -0.647385 -0.700984
                  CHANNELS 3 Zrotation Xrotation Yrotation
                  End Site
                  {
                    OFFSET 1.69225 -0.51767 -0.607171
                  }
                }
              }
            }
          }
        }
      }
    }
  }
  JOINT rButtock
  {
    OFFSET -8.77824 4.35084 1.2192
    CHANNELS 3 Zrotation Xrotation Yrotation
    JOINT rThigh
    {
      OFFSET 0 -1.70687 -2.19456
      CHANNELS 3 Zrotation Xrotation Yrotation
      JOINT rShin
      {
        OFFSET 0 -36.8199 0.73152
        CHANNELS 3 Zrotation Xrotation Yrotation
        JOINT rFoot
        {
          OFFSET 0.73152 -45.1104 -5.12064
          CHANNELS 3 Zrotation Xrotation Yrotation
          End Site
          {
            OFFSET -1.1221 -3.69964 12.103
          }
        }
      }
    }
  }
  JOINT lButtock
  {
    OFFSET 8.77824 4.35084 1.2192
    CHANNELS 3 Zrotation Xrotation Yrotation
    JOINT lThigh
    {
      OFFSET 0 -1.70687 -2.19456
      CHANNELS 3 Zrotation Xrotation Yrotation
      JOINT lShin
      {
        OFFSET 0 -36.8199 0.73152
        CHANNELS 3 Zrotation Xrotation Yrotation
        JOINT lFoot
        {
          OFFSET -0.73152 -45.1104 -5.12064
          CHANNELS 3 Zrotation Xrotation Yrotation
          End Site
          {
            OFFSET 1.1221 -3.69964 12.103
          }
        }
      }
    }
  }
}
MOTION
Frames:	9
Frame Time:	0.00833333
160.264 81.5358 63.817 -182.379 -1.3423 -169.896 -1.73696 4.87485 -3.92068 1.56416 -0.123095 -1.14256 3.29371 5.92198 -0.560158 -4.17561 -14.74 -2.00491 -0.0 0.0 0.0 -0.0 0.0 0.0 8.51333e-14 -4.67147e-14 -4.09062e-15 21.7886 34.8446 51.5588 -26.5419 -24.913 59.1437 -1.27162 30.2597 4.70263 -2.48812e-10 -1.0521e-09 -1.86392e-10 -4.32106e-10 -1.82644e-09 -3.15034e-10 -2.48808e-10 -1.0521e-09 -1.86404e-10 7.73091 5.47488 0.417314 -2.48812e-10 -1.0521e-09 -1.86396e-10 2.90554 0.965183 0.102902 -2.48811e-10 -1.0521e-09 -1.86397e-10 10.2786 0.731801 0.0259123 -2.48814e-10 -1.0521e-09 -1.8639e-10 2.22167 -0.733487 -0.20892 8.50692e-14 -4.67144e-14 -4.30493e-15 -87.9075 56.1577 19.7278 24.0641 -19.2229 -49.8237 0.00289564 1.39116 -0.195556 -6.27674e-10 -9.35171e-11 2.11441e-10 -1.08493e-09 -1.63462e-10 3.64356e-10 -6.2768e-10 -9.35147e-11 2.11445e-10 -7.73091 5.47488 -0.417314 -6.27677e-10 -9.35213e-11 2.11433e-10 -2.90554 0.965183 -0.102902 -6.27683e-10 -9.35167e-11 2.11438e-10 -10.2786 0.731801 -0.0259123 -6.27673e-10 -9.35162e-11 2.11426e-10 -2.22167 -0.733487 0.20892 -2.03217e-16 0.0 -3.88251e-19 -8.33886 -54.5562 -9.27389 -0.629675 50.0693 0.854331 -0.516401 6.68862 8.48421 2.03217e-16 0.0 3.88251e-19 -0.248588 -26.0791 11.7196 0.313399 39.5101 -0.733272 -2.92265 -20.8628 -7.4777
160.278 81.5523 64.3511 -182.445 -1.3473 -169.972 -2.04322 4.96899 -3.85726 1.60613 -0.196533 -1.1279 3.23896 5.92654 -0.611579 -3.98079 -14.7552 -2.07331 -0.0 0.0 0.0 -0.0 0.0 0.0 1.41e-13 -5.41191e-14 4.11014e-14 24.3515 35.5596 50.262 -26.5653 -24.9813 59.2535 -1.36694 31.2418 4.88997 -5.44735e-10 -2.65539e-09 -1.96112e-10 -9.43352e-10 -4.59763e-09 -3.25236e-10 -5.44732e-10 -2.65539e-09 -1.96125e-10 7.73091 5.47488 0.417314 -5.44736e-10 -2.65539e-09 -1.96118e-10 2.90554 0.965183 0.102902 -5.44736e-10 -2.65539e-09 -1.96117e-10 10.2786 0.731801 0.0259123 -5.44738e-10 -2.65539e-09 -1.9611e-10 2.22167 -0.733487 -0.20892 1.4104e-13 -5.41185e-14 4.08603e-14 -86.1373 56.0694 17.9585 24.5316 -20.1279 -51.3807 0.00275221 1.44254 -0.20278 -6.70787e-10 -2.19501e-10 9.26573e-11 -1.15961e-09 -3.80056e-10 1.59107e-10 -6.70793e-10 -2.19501e-10 9.26606e-11 -7.73091 5.47488 -0.417314 -6.70788e-10 -2.19505e-10 9.26537e-11 -2.90554 0.965183 -0.102902 -6.70791e-10 -2.19503e-10 9.26576e-11 -10.2786 0.731801 -0.0259123 -6.70782e-10 -2.19501e-10 9.26448e-11 -2.22167 -0.733487 0.20892 -2.03217e-16 0.0 -3.88251e-19 -8.66818 -54.9493 -9.55402 -0.681887 51.5369 0.921998 -0.574341 7.16974 8.5662 2.03217e-16 0.0 3.88251e-19 -0.27408 -26.4527 11.8732 0.314945 39.6331 -0.73811 -2.97728 -20.5144 -7.71065
160.3 81.5769 64.879 -182.46 -1.354 -170.038 -2.25454 5.04793 -3.81217 1.62349 -0.264356 -1.11714 3.18255 5.92682 -0.648366 -3.83372 -14.7606 -2.11793 -0.0 0.0 0.0 -0.0 0.0 0.0 1.66339e-13 -4.29375e-14 6.6891e-14 26.8668 36.2916 48.8947 -26.5924 -25.061 59.3803 -1.45111 32.0536 5.04871 -7.88304e-10 -3.9924e-09 -2.10146e-10 -1.36431e-09 -6.91316e-09 -3.43798e-10 -7.88301e-10 -3.9924e-09 -2.10158e-10 7.73091 5.47488 0.417314 -7.88304e-10 -3.9924e-09 -2.10152e-10 2.90554 0.965183 0.102902 -7.88305e-10 -3.9924e-09 -2.1015e-10 10.2786 0.731801 0.0259123 -7.88307e-10 -3.9924e-09 -2.10142e-10 2.22167 -0.733487 -0.20892 1.66437e-13 -4.29365e-14 6.66426e-14 -84.3955 55.9243 16.2246 25.0112 -21.12 -52.989 0.00259429 1.45421 -0.20442 -6.56136e-10 -4.56979e-10 -6.20463e-11 -1.13439e-09 -7.89296e-10 -1.07969e-10 -6.5614e-10 -4.56981e-10 -6.20431e-11 -7.73091 5.47488 -0.417314 -6.56135e-10 -4.56982e-10 -6.20463e-11 -2.90554 0.965183 -0.102902 -6.56136e-10 -4.56982e-10 -6.20439e-11 -10.2786 0.731801 -0.0259123 -6.56128e-10 -4.56981e-10 -6.20558e-11 -2.22167 -0.733487 0.20892 -2.03217e-16 0.0 -3.88251e-19 -8.94407 -55.3057 -9.82856 -0.736698 52.9622 0.992657 -0.643431 7.71417 8.71372 2.03217e-16 0.0 3.88251e-19 -0.277743 -26.809 11.9589 0.31577 39.7283 -0.743047 -2.99394 -20.1752 -7.86234
160.33 81.6126 65.4002 -182.415 -1.3581 -170.1 -2.33224 5.10704 -3.78747 1.60277 -0.327167 -1.11025 3.12237 5.92293 -0.66736 -3.74754 -14.755 -2.13361 -0.0 0.0 0.0 -0.0 0.0 0.0 1.4356e-13 -1.28013e-15 6.05788e-14 29.3526 37.0464 47.4234 -26.6275 -25.1649 59.5445 -1.516 32.6525 5.16792 -9.77216e-10 -5.0976e-09 -2.27855e-10 -1.69098e-09 -8.83444e-09 -3.69424e-10 -9.77212e-10 -5.0976e-09 -2.27866e-10 7.73091 5.47488 0.417314 -9.77216e-10 -5.0976e-09 -2.2786e-10 2.90554 0.965183 0.102902 -9.77216e-10 -5.0976e-09 -2.27857e-10 10.2786 0.731801 0.0259123 -9.7722e-10 -5.0976e-09 -2.27847e-10 2.22167 -0.733487 -0.20892 1.43648e-13 -1.2785e-15 6.03548e-14 -82.7024 55.7162 14.546 25.4919 -22.1975 -54.6956 0.00234154 1.38765 -0.19506 -5.67044e-10 -8.06892e-10 -2.67453e-10 -9.80392e-10 -1.39248e-09 -4.62156e-10 -5.67047e-10 -8.06894e-10 -2.6745e-10 -7.73091 5.47488 -0.417314 -5.67043e-10 -8.06893e-10 -2.67451e-10 -2.90554 0.965183 -0.102902 -5.67044e-10 -8.06895e-10 -2.6745e-10 -10.2786 0.731801 -0.0259123 -5.67037e-10 -8.06893e-10 -2.6746e-10 -2.22167 -0.733487 0.20892 -2.03217e-16 0.0 -3.88251e-19 -9.14714 -55.6276 -10.1045 -0.793736 54.3382 1.06639 -0.72945 8.33684 8.96476 2.03217e-16 0.0 3.88251e-19 -0.242753 -27.1514 11.9722 0.315777 39.7962 -0.74853 -2.97022 -19.8514 -7.92314
160.363 81.6589 65.9126 -182.331 -1.3795 -170.168 -2.3184 5.14456 -3.76669 1.55093 -0.384638 -1.10309 3.06166 5.91425 -0.673887 -3.6993 -14.7397 -2.12883 -0.0 0.0 0.0 -0.0 0.0 0.0 9.0697e-14 5.57579e-14 3.61291e-14 31.8522 37.8136 45.8386 -26.6685 -25.2877 59.7397 -1.56216 33.0794 5.25321 -1.12675e-09 -6.05927e-09 -2.32964e-10 -1.94948e-09 -1.05113e-08 -3.73736e-10 -1.12675e-09 -6.05927e-09 -2.32972e-10 7.73091 5.47488 0.417314 -1.12675e-09 -6.05927e-09 -2.32965e-10 2.90554 0.965183 0.102902 -1.12675e-09 -6.05927e-09 -2.32961e-10 10.2786 0.731801 0.0259123 -1.12676e-09 -6.05926e-09 -2.32948e-10 2.22167 -0.733487 -0.20892 9.07372e-14 5.57604e-14 3.59521e-14 -81.0351 55.461 12.9092 25.9506 -23.3195 -56.5275 0.00182897 1.23337 -0.173365 -3.94417e-10 -1.2317e-09 -5.14665e-10 -6.81986e-10 -2.12484e-09 -8.88314e-10 -3.94417e-10 -1.2317e-09 -5.1466e-10 -7.73091 5.47488 -0.417314 -3.94416e-10 -1.2317e-09 -5.14661e-10 -2.90554 0.965183 -0.102902 -3.94417e-10 -1.2317e-09 -5.14661e-10 -10.2786 0.731801 -0.0259123 -3.94411e-10 -1.2317e-09 -5.14667e-10 -2.22167 -0.733487 0.20892 -2.03217e-16 0.0 -3.88251e-19 -9.28334 -55.9342 -10.3667 -0.855272 55.7053 1.14527 -0.833842 9.02651 9.28822 2.03217e-16 0.0 3.88251e-19 -0.170234 -27.4942 11.9498 0.31545 39.8551 -0.754423 -2.92397 -19.525 -7.93602
160.397 81.7162 66.414 -182.215 -1.4201 -170.252 -2.26816 5.17223 -3.75757 1.49301 -0.435659 -1.09886 3.00272 5.90103 -0.671059 -3.6766 -14.7168 -2.10882 -0.0 0.0 0.0 -0.0 0.0 0.0 3.38065e-14 1.12746e-13 1.16421e-14 34.309 38.5778 44.2076 -26.7066 -25.4034 59.9256 -1.5967 33.4003 5.31747 -1.23063e-09 -6.73367e-09 -2.39114e-10 -2.12919e-09 -1.16932e-08 -3.80933e-10 -1.23063e-09 -6.73367e-09 -2.3912e-10 7.73091 5.47488 0.417314 -1.23064e-09 -6.73367e-09 -2.39113e-10 2.90554 0.965183 0.102902 -1.23063e-09 -6.73367e-09 -2.39108e-10 10.2786 0.731801 0.0259123 -1.23064e-09 -6.73366e-09 -2.39092e-10 2.22167 -0.733487 -0.20892 3.3784e-14 1.12749e-13 1.15136e-14 -79.3882 55.1664 11.3017 26.3796 -24.4647 -58.4155 0.00143878 1.08513 -0.152524 -1.82595e-10 -1.75744e-09 -7.77093e-10 -3.1591e-10 -3.03203e-09 -1.34091e-09 -1.82593e-10 -1.75744e-09 -7.77087e-10 -7.73091 5.47488 -0.417314 -1.82593e-10 -1.75743e-09 -7.77087e-10 -2.90554 0.965183 -0.102902 -1.82595e-10 -1.75744e-09 -7.77088e-10 -10.2786 0.731801 -0.0259123 -1.82591e-10 -1.75744e-09 -7.77091e-10 -2.22167 -0.733487 0.20892 -2.03217e-16 0.0 -3.88251e-19 -9.38751 -56.2064 -10.6069 -0.921211 57.0484 1.22853 -0.952843 9.75606 9.62479 2.03217e-16 0.0 3.88251e-19 -0.102504 -27.8201 11.8717 0.314611 39.8905 -0.759801 -2.85281 -19.196 -7.89239
160.431 81.7831 66.9046 -182.098 -1.4785 -170.353 -2.2367 5.20179 -3.76787 1.454 -0.479118 -1.10078 2.94786 5.88351 -0.661987 -3.667 -14.6884 -2.07881 -0.0 0.0 0.0 -0.0 0.0 0.0 -1.05485e-15 1.54255e-13 5.2181e-15 36.6626 39.3286 42.6029 -26.7339 -25.4869 60.0615 -1.62788 33.6815 5.3744 -1.28258e-09 -6.97707e-09 -2.5995e-10 -2.21954e-09 -1.21295e-08 -4.15213e-10 -1.28257e-09 -6.97707e-09 -2.59953e-10 7.73091 5.47488 0.417314 -1.28258e-09 -6.97707e-09 -2.59947e-10 2.90554 0.965183 0.102902 -1.28257e-09 -6.97706e-09 -2.59942e-10 10.2786 0.731801 0.0259123 -1.28259e-09 -6.97706e-09 -2.59924e-10 2.22167 -0.733487 -0.20892 -1.13187e-15 1.54258e-13 5.11871e-15 -77.7556 54.8397 9.70968 26.7801 -25.6294 -60.289 0.00131835 1.03671 -0.145716 2.408e-11 -2.41015e-09 -1.02815e-09 4.11031e-11 -4.15972e-09 -1.7744e-09 2.40828e-11 -2.41015e-09 -1.02814e-09 -7.73091 5.47488 -0.417314 2.40815e-11 -2.41015e-09 -1.02814e-09 -2.90554 0.965183 -0.102902 2.40789e-11 -2.41015e-09 -1.02814e-09 -10.2786 0.731801 -0.0259123 2.40822e-11 -2.41015e-09 -1.02814e-09 -2.22167 -0.733487 0.20892 -2.03217e-16 0.0 -3.88251e-19 -9.49375 -56.425 -10.8163 -0.991128 58.3529 1.3151 -1.07915 10.4991 9.91445 2.03217e-16 0.0 3.88251e-19 -0.0822014 -28.1117 11.7173 0.313075 39.8874 -0.763733 -2.75462 -18.8639 -7.78373
160.463 81.8549 67.3875 -181.988 -1.5334 -170.461 -2.2228 5.24536 -3.80971 1.44049 -0.514963 -1.11246 2.89664 5.86235 -0.643754 -3.68411 -14.6586 -2.03494 -0.0 0.0 0.0 -0.0 0.0 0.0 -2.7323e-15 1.74133e-13 2.94434e-14 38.8701 40.0737 41.0576 -26.7507 -25.5387 60.146 -1.65323 33.9017 5.41959 -1.19052e-09 -6.39039e-09 -2.98017e-10 -2.06165e-09 -1.11221e-08 -4.8367e-10 -1.19052e-09 -6.39039e-09 -2.98018e-10 7.73091 5.47488 0.417314 -1.19052e-09 -6.39039e-09 -2.98014e-10 2.90554 0.965183 0.102902 -1.19052e-09 -6.39039e-09 -2.98009e-10 10.2786 0.731801 0.0259123 -1.19053e-09 -6.39039e-09 -2.97994e-10 2.22167 -0.733487 -0.20892 -2.85717e-15 1.74136e-13 2.93468e-14 -76.1617 54.4784 8.15215 27.1539 -26.8471 -62.186 0.00155854 1.10418 -0.155205 2.02198e-10 -2.97681e-09 -1.23731e-09 3.48594e-10 -5.13961e-09 -2.13616e-09 2.02201e-10 -2.9768e-09 -1.23731e-09 -7.73091 5.47488 -0.417314 2.02199e-10 -2.9768e-09 -1.2373e-09 -2.90554 0.965183 -0.102902 2.02197e-10 -2.97681e-09 -1.23731e-09 -10.2786 0.731801 -0.0259123 2.022e-10 -2.97681e-09 -1.23731e-09 -2.22167 -0.733487 0.20892 -2.03217e-16 0.0 -3.88251e-19 -9.61403 -56.5775 -11.0049 -1.06469 59.6144 1.4047 -1.20906 11.2495 10.1521 2.03217e-16 0.0 3.88251e-19 -0.131219 -28.3502 11.4486 0.310508 39.8323 -0.76614 -2.61981 -18.5301 -7.58458
160.494 81.9312 67.8621 -181.904 -1.5852 -170.574 -2.20225 5.29366 -3.87561 1.43914 -0.543703 -1.13127 2.8482 5.83721 -0.61595 -3.72896 -14.6252 -1.97619 -0.0 0.0 0.0 -0.0 0.0 0.0 1.34753e-14 1.8129e-13 7.20781e-14 40.9737 40.8189 39.5298 -26.7609 -25.5703 60.1973 -1.66899 34.0388 5.44775 -9.87945e-10 -5.17055e-09 -3.46402e-10 -1.71317e-09 -9.01508e-09 -5.73185e-10 -9.87936e-10 -5.17055e-09 -3.46402e-10 7.73091 5.47488 0.417314 -9.87945e-10 -5.17056e-09 -3.464e-10 2.90554 0.965183 0.102902 -9.87942e-10 -5.17055e-09 -3.46397e-10 10.2786 0.731801 0.0259123 -9.87955e-10 -5.17055e-09 -3.46385e-10 2.22167 -0.733487 -0.20892 1.32994e-14 1.81292e-13 7.19694e-14 -74.606 54.082 6.63322 27.4841 -28.1008 -64.1589 0.00208862 1.24051 -0.174379 3.79271e-10 -3.51684e-09 -1.42658e-09 6.54154e-10 -6.07417e-09 -2.46397e-09 3.79271e-10 -3.51684e-09 -1.42657e-09 -7.73091 5.47488 -0.417314 3.79271e-10 -3.51684e-09 -1.42657e-09 -2.90554 0.965183 -0.102902 3.79269e-10 -3.51684e-09 -1.42657e-09 -10.2786 0.731801 -0.0259123 3.79272e-10 -3.51684e-09 -1.42658e-09 -2.22167 -0.733487 0.20892 -2.03217e-16 0.0 -3.88251e-19 -9.72668 -56.6769 -11.1711 -1.14247 60.8409 1.49826 -1.34584 12.0212 10.3664 2.03217e-16 0.0 3.88251e-19 -0.224758 -28.549 11.0866 0.307093 39.7363 -0.767457 -2.45501 -18.1937 -7.308
